<svg xmlns="http://www.w3.org/2000/svg" viewBox="0 0 500 500"><g id="freepik--Shadow--inject-54"><ellipse cx="250" cy="434.75" rx="130.94" ry="24.47" style="fill:#ebebeb"></ellipse></g><g id="freepik--Floor--inject-54"><polygon points="30.62 334.7 85.47 334.46 140.31 334.37 250 334.2 359.69 334.37 414.53 334.46 469.38 334.7 414.53 334.95 359.69 335.04 250 335.2 140.31 335.03 85.47 334.95 30.62 334.7" style="fill:#263238"></polygon></g><g id="freepik--Plant--inject-54"><path d="M441.5,201c-4.6-4.51-10.55-10-17.58-8-6.62,1.82-9.15,9.05-10.34,15.07-1.52,7.75-2.71,15.59-3.94,23.39s-2.42,15.79-3.55,23.69q-1,6.69-1.9,13.38l-.93,6.69c-.3,2.19-.67,4.38-.79,6.59,0,.7,1.07.8,1.22.13.85-3.72,1.2-7.59,1.75-11.37s1.1-7.59,1.66-11.39q1.65-11.31,3.38-22.62T414,213.93c1-6.39,1.51-14.33,7.17-18.54,3.1-2.31,7.07-2.34,10.59-1,3.72,1.42,6.7,4.09,9.62,6.73C441.46,201.21,441.59,201.07,441.5,201Z" style="fill:#263238"></path><path d="M435.2,196.38s-9.4-3.38-14,3.48.9,24.32,43.72,34.17a120.89,120.89,0,0,0-10.3-38.71C445.4,175.3,429.05,182.88,435.2,196.38Z" style="fill:#E8D5B1"></path><path d="M462.42,231.17a34.5,34.5,0,0,0-2.15-3.47c-.72-1.1-1.44-2.2-2.17-3.3-.55-.82-1.11-1.63-1.68-2.45,0-.2.05-.4.08-.61l.15-1.11c.1-.8.22-1.61.34-2.41s.25-1.59.4-2.39a13.33,13.33,0,0,1,.56-2.52c.06-.12-.17-.19-.18,0a9.94,9.94,0,0,1-.39,1.42c-.1.36-.19.72-.28,1.08-.21.81-.41,1.63-.59,2.45s-.31,1.51-.44,2.27c-.07.37-.12.73-.17,1.1-.76-1.09-1.54-2.17-2.34-3.23-2.28-3-4.68-5.87-7.17-8.69,0,0,0,0,0-.07.22-4.5.11-9,1.11-13.38,0-.12-.15-.19-.18-.07-.94,4.15-1.87,8.51-1.6,12.8-.89-1-1.8-2-2.71-3q-3.14-3.36-6.38-6.61c-.09-.08-.23,0-.14.13,3.61,3.89,7,7.93,10.37,12.05a75.79,75.79,0,0,0-7.83.29c-2.9.22-5.78.59-8.67,1-.12,0-.08.21,0,.19a81,81,0,0,1,8.66-.78c2.79-.11,5.57,0,8.36,0q2.7,3.36,5.35,6.76h-.4c-.66,0-1.31,0-2,0-1.3,0-2.6.12-3.9.23a60.37,60.37,0,0,0-7.91,1.18.1.1,0,0,0,0,.19c2.63-.3,5.27-.54,7.91-.63,1.27-.05,2.53-.05,3.79-.05.66,0,1.31,0,2,0a2.54,2.54,0,0,0,1.08-.1c1.15,1.49,2.31,3,3.45,4.49.91,1.2,1.8,2.4,2.68,3.62s1.72,2.6,2.72,3.76C462.34,231.37,462.47,231.27,462.42,231.17Z" style="fill:#263238"></path><path d="M439.3,206.11a29.17,29.17,0,0,0-4.58-.23c-1.53,0-3.06.05-4.59.1a.1.1,0,1,0,0,.19c1.55-.11,3.09-.13,4.65-.11s3,.16,4.49.12C439.34,206.18,439.35,206.12,439.3,206.11Z" style="fill:#263238"></path><path d="M452.74,209.56c.17-1.46.36-2.93.67-4.37a.1.1,0,1,0-.19,0c-.22,1.44-.5,2.87-.71,4.31-.11.72-.21,1.44-.29,2.16a10.05,10.05,0,0,0-.18,2,.13.13,0,0,0,.25,0,11.48,11.48,0,0,0,.22-2C452.58,211,452.66,210.25,452.74,209.56Z" style="fill:#263238"></path><path d="M449.92,193.35c-.37,1.43-.74,2.87-1,4.32-.13.73-.24,1.47-.34,2.21a8.74,8.74,0,0,0-.15,2.16.06.06,0,0,0,.12,0,13,13,0,0,0,.33-2.06q.15-1.06.33-2.13c.26-1.49.53-3,.9-4.44C450.13,193.3,450,193.23,449.92,193.35Z" style="fill:#263238"></path><path d="M394.16,280.2c-.23-2.69-.5-5.39-.78-8.08-.56-5.33-1.22-10.65-1.93-16s-1.4-10.61-2.25-15.89a39.7,39.7,0,0,0-1.63-7.22,6.84,6.84,0,0,0-4-4.51c-5-1.74-8.43,3.49-10.47,7.18a.1.1,0,0,0,.17.1c1.22-1.75,4.59-6.67,8.41-6.44,2.57.15,4.63,2,5.86,8.39,3.08,16,5.85,48.4,6.17,50.52.17,1.12,1,1.08,1-.13C394.7,285.5,394.39,282.84,394.16,280.2Z" style="fill:#263238"></path><path d="M374.46,233.73s4.4-15.55-5.33-7.78c-16.21,12.94-16.78,41.1-16.78,41.1s28.8-16.74,32.39-27.77C390.07,222.84,374.46,233.73,374.46,233.73Z" style="fill:#E8D5B1"></path><path d="M379.91,241.36c-2.26.46-4.55.76-6.83,1.08l-3.25.46c-.73.1-1.46.17-2.2.26,2.15-3,4.31-5.9,6.37-8.92.08-.11-.1-.23-.2-.14a67.28,67.28,0,0,0-4.81,5.56c-.42-1.21-.85-2.41-1.28-3.61-.49-1.39-1-2.78-1.37-4.21a.09.09,0,0,0-.18,0c.39,1.43.67,2.88,1,4.31s.79,2.74,1.28,4.09c-1.06,1.37-2.07,2.77-3.05,4.19-.5-1.41-1.11-2.77-1.55-4.19a.09.09,0,1,0-.18.05c.51,1.58.79,3.22,1.28,4.81-.66,1-1.33,1.93-2,2.91-1.16,1.79-2.26,3.62-3.33,5.47a.42.42,0,0,0-.25.43c-1.82,3.15-3.55,6.34-5.26,9.57a.1.1,0,0,0,.17.09c1.71-3.18,3.61-6.28,5.59-9.33h0a4.48,4.48,0,0,1,.94-.18l1-.22c.74-.16,1.48-.35,2.22-.54,1.46-.36,2.91-.7,4.39-1,.12,0,.07-.21-.06-.18-1.74.33-3.49.53-5.25.73-.83.1-1.66.2-2.49.33l-.12,0c1-1.57,2.08-3.13,3.15-4.68s2.12-3,3.2-4.51c1-.14,2-.4,3-.59l3.35-.65c2.23-.45,4.45-1,6.69-1.32C380.09,241.52,380,241.33,379.91,241.36Z" style="fill:#263238"></path><path d="M362.6,242.89l-.39-1.24a25.37,25.37,0,0,1-.66-2.6c0-.12-.21-.07-.18,0,.18.88.39,1.76.59,2.63a17.85,17.85,0,0,0,.75,2.59.17.17,0,0,0,.33-.1C362.92,243.77,362.74,243.33,362.6,242.89Z" style="fill:#263238"></path><path d="M382.86,237.76c-1.31.2-2.64.29-4,.4s-2.64.3-4,.5c-.07,0-.07.12,0,.12,1.33-.09,2.64-.2,4-.37s2.64-.37,4-.46C383,237.94,383,237.74,382.86,237.76Z" style="fill:#263238"></path><path d="M415.36,260.52c-.51-11.45-1.24-22.88-2.39-34.28-.57-5.68-1.21-11.36-2-17a122.91,122.91,0,0,0-3.28-16.46c-1.18-4.12-2.73-8.25-5.48-11.6a12.44,12.44,0,0,0-11.07-4.83c-5,.62-9.05,3.77-12.54,7.2-3.91,3.85-7.5,8.05-11.12,12.17-.92,1-1.83,2.09-2.73,3.14-.08.09.06.23.14.13,3.54-4.07,7.23-8,11.08-11.81,3.56-3.5,7.23-7.32,12.17-8.76a12.48,12.48,0,0,1,7.06-.17A11.25,11.25,0,0,1,400,181.3c2.78,2.89,4.34,6.8,5.45,10.59,3.08,10.52,4.18,21.55,5.32,32.42,1.16,11,1.95,22.11,2.5,33.2s1,22.31,2.07,33.42c.13,1.37.31,2.74.48,4.1.12.92,1.55.92,1.47,0C416.4,283.51,415.87,272,415.36,260.52Z" style="fill:#263238"></path><path d="M378,184.78s6.53-12.1-1.19-16-33.58,25-41.14,67.18c0,0,41.76-18.47,55.94-36.88S389.69,176.63,378,184.78Z" style="fill:#E8D5B1"></path><path d="M384.1,194.62c-4.69,0-9.37-.35-14.06-.32.87-1,1.75-2,2.64-3a43.62,43.62,0,0,0,3.67-4.26c.06-.1-.08-.24-.17-.16a33.15,33.15,0,0,0-3.55,3.56q-1.77,1.88-3.51,3.76c-1.8,1.94-3.55,3.91-5.31,5.89v-3c0-1.6,0-3.19.05-4.78,0-3.23,0-6.47.25-9.69,0-.12-.19-.12-.2,0-.22,3.23-.55,6.45-.71,9.7-.08,1.59-.12,3.18-.14,4.77,0,.83,0,1.65,0,2.47,0,.45,0,.92,0,1.38-.27.31-.55.61-.83.92-3.74,4.28-7.3,8.71-10.77,13.21,0-.24,0-.5-.06-.74,0-.5-.11-1-.16-1.49-.13-1.08-.27-2.15-.43-3.22s-.31-2-.48-3-.47-2.27-.56-3.41a.09.09,0,1,0-.18,0,30.42,30.42,0,0,1,.39,3.44c.1,1,.19,2.06.28,3.09s.19,2.07.3,3.1c.05.5.09,1,.15,1.49q0,.38.09.75a1.28,1.28,0,0,0,.2.59c-.6.78-1.2,1.55-1.79,2.33-2.37,3.13-4.69,6.3-7,9.47-.08.1.06.23.14.13q3.3-4.31,6.76-8.48c1.72.07,3.47-.06,5.19-.08s3.62,0,5.43,0a.1.1,0,0,0,0-.19c-1.82,0-3.63.06-5.44.06-1.65,0-3.33-.07-5,0,2-2.46,4.06-4.89,6.1-7.33l2.24-2.65a10.52,10.52,0,0,0,2.1.07h2.47c1.54,0,3.08,0,4.63-.06,3.18-.05,6.37-.16,9.56-.17a.1.1,0,0,0,0-.19c-3.2,0-6.39-.18-9.58-.26-1.54,0-3.09-.09-4.63-.11l-2.47,0c-.47,0-1,0-1.43,0,1.76-2.07,3.51-4.16,5.26-6.23a.18.18,0,0,0,.1-.11c1.71-2,3.42-4,5.16-6,.23-.28.47-.55.71-.82,4.87.15,9.72-.17,14.59-.07C384.23,194.82,384.23,194.62,384.1,194.62Z" style="fill:#263238"></path><path d="M381.7,202.92h-1.13a.09.09,0,1,0,0,.17h1.14A.1.1,0,0,0,381.7,202.92Z" style="fill:#263238"></path><path d="M379.18,202.93c-1.51,0-3-.05-4.51-.09l-2.26-.07a8.2,8.2,0,0,0-2.1,0,.07.07,0,0,0,0,.14,7.74,7.74,0,0,0,2.1.15l2.25,0c1.5,0,3,0,4.51,0C379.31,203.13,379.3,202.94,379.18,202.93Z" style="fill:#263238"></path><path d="M366.05,217a63.6,63.6,0,0,0-9.24-.84s0,.07,0,.07c3.06.29,6.14.46,9.18,1C366.12,217.23,366.17,217,366.05,217Z" style="fill:#263238"></path><path d="M353.5,203.59c0-.27-.07-.54-.1-.8-.08-.61-.17-1.21-.27-1.81-.18-1.15-.38-2.29-.6-3.43,0-.11-.2-.08-.19,0,.15,1.18.27,2.36.38,3.54.06.58.1,1.17.15,1.75a4.82,4.82,0,0,0,.24,1.65.22.22,0,0,0,.4-.06A2.31,2.31,0,0,0,353.5,203.59Z" style="fill:#263238"></path><path d="M415,169.24c-1.5-2.78-3.4-6.45-7.13-6.22-3.08.19-4.47,3.33-5.13,5.93-2,8-2.17,16.52-2.57,24.75-.84,17.41-1.59,34.83-1.7,52.26,0,4.83,0,9.66,0,14.49s0,9.88.35,14.8a.36.36,0,0,0,.72,0c0-4.21-.12-8.43-.14-12.64s0-8.23.08-12.34q.21-12.5.67-25c.31-8.28.67-16.55,1-24.82.18-4.14.35-8.27.54-12.4s.35-8,.81-12c.26-2.23.59-4.46,1.05-6.66a9.27,9.27,0,0,1,1.93-4.47,4.21,4.21,0,0,1,5.44-.39,11.48,11.48,0,0,1,3.86,4.82C414.84,169.46,415,169.35,415,169.24Z" style="fill:#263238"></path><path d="M413.94,167.92s-3.07-10.84,3.71-5.42c11.29,9,11.69,28.63,11.69,28.63s-20.07-11.66-22.56-19.35C403.06,160.33,413.94,167.92,413.94,167.92Z" style="fill:#E8D5B1"></path><path d="M425.12,183.09c-.18-.3-.38-.59-.57-.89a5.78,5.78,0,0,0,0-.93c0-.46,0-.93,0-1.39,0-.92.06-1.83.1-2.75,0-.12-.18-.12-.19,0,0,.89-.08,1.79-.11,2.69,0,.45,0,.9-.05,1.35,0,.17,0,.37,0,.58q-1.18-1.84-2.44-3.63l-.74-1a19.92,19.92,0,0,1-.06-3.54c0-1.26,0-2.52.07-3.77,0-.13-.19-.12-.19,0,0,1.31-.1,2.62-.17,3.93a26.11,26.11,0,0,0-.07,2.8c-1.94-2.64-4-5.18-6.08-7.7-.07-.09-.22,0-.15.12,1.29,1.63,2.53,3.3,3.74,5-2.36-.55-4.77-.86-7.16-1.21-.13,0-.17.17,0,.19,2.54.38,5,1,7.54,1.57,0,0,0,0,.05,0q1.44,2,2.85,4.08c.39.56.76,1.12,1.14,1.68l-.11,0-.78-.1c-.55-.07-1.11-.11-1.66-.16-1.16-.09-2.32-.15-3.48-.21-.12,0-.12.19,0,.19,1.14,0,2.27.11,3.4.24l1.8.21.78.1.23,0,1.93,2.84c1.14,1.68,2.15,3.47,3.36,5.09.07.1.2,0,.15-.1A52.16,52.16,0,0,0,425.12,183.09Z" style="fill:#263238"></path><path d="M420.12,170.85c0-.42,0-.84,0-1.26a19.73,19.73,0,0,1,.11-2.66.1.1,0,1,0-.19,0c0,.88-.1,1.76-.14,2.63,0,.44,0,.88,0,1.32,0,.2,0,.4,0,.61a1.84,1.84,0,0,0,0,.62.09.09,0,0,0,.17,0,1.87,1.87,0,0,0,0-.58C420.12,171.29,420.12,171.07,420.12,170.85Z" style="fill:#263238"></path><path d="M417.64,175.34c-.74-.13-1.51-.17-2.26-.23s-1.66-.14-2.48-.25a.1.1,0,1,0,0,.19c1.58.1,3.16.38,4.74.44C417.71,175.49,417.73,175.35,417.64,175.34Z" style="fill:#263238"></path><path d="M424,175.4a1.18,1.18,0,0,1,0,.42v.35c0,.25,0,.51,0,.76s0,.5,0,.76a1.63,1.63,0,0,0,0,.66.05.05,0,0,0,.08,0,.85.85,0,0,0,0-.32v-1.1c0-.26,0-.51,0-.76v-.35c0-.11,0-.33,0-.42S423.82,175.22,424,175.4Z" style="fill:#263238"></path><path d="M415.41,227c-4.22-3.17-8-7.72-13.68-7.94-4.69-.19-8,3.34-9.85,7.27a39.77,39.77,0,0,0-2.29,6.47q-1.27,4.44-2.4,8.93-2.2,8.82-3.75,17.8c-.57,3.34-1.1,6.68-1.53,10a84.52,84.52,0,0,0-1,10.28A.53.53,0,0,0,382,280c.57-2.8.81-5.7,1.22-8.54s.85-5.7,1.33-8.54c1-5.68,2.08-11.35,3.36-17,1.21-5.31,2.4-10.7,4.11-15.87,1.23-3.71,3.2-8,7.2-9.36,6.09-2,11.62,3.12,16.08,6.47C415.38,227.25,415.51,227.11,415.41,227Z" style="fill:#263238"></path><path d="M411.05,224s-3.89-11.11,1.73-13.29c8.44-3.26,30.51,21.6,26.19,59.68,0,0-17.06-9.39-29.65-20s-15.81-24.37-10.27-27.94S411.05,224,411.05,224Z" style="fill:#E8D5B1"></path><path d="M436.42,262.24a30.12,30.12,0,0,0-2.05-3.84c-.72-1.31-1.45-2.61-2.21-3.89-1.46-2.51-2.92-5-4.42-7.51-.24-.4-.49-.8-.74-1.2,0-.15.06-.3.1-.44.08-.37.16-.74.25-1.11.18-.82.33-1.66.48-2.49.31-1.63.59-3.28,1-4.88,0-.12-.16-.16-.19,0-.35,1.62-.86,3.23-1.34,4.82-.24.79-.49,1.57-.7,2.36l-.21.82c-1.82-3-3.66-5.93-5.65-8.79a4,4,0,0,0,.2-1.22c.06-.56.13-1.11.19-1.67.15-1.25.29-2.51.48-3.76a71.85,71.85,0,0,1,1.33-7.29c0-.12-.16-.16-.19,0-.6,2.4-1.26,4.8-1.72,7.23-.22,1.19-.43,2.39-.59,3.59-.08.61-.15,1.21-.21,1.81,0,.18-.05.37-.07.55-.61-.86-1.22-1.73-1.86-2.57-1.95-2.56-4-5.06-6-7.55-.07-.1-.23,0-.15.11a135.29,135.29,0,0,1,9.59,14l1.65,2.69-.54-.07c-.72-.09-1.44-.13-2.15-.2-1.44-.13-2.87-.26-4.31-.37-2.87-.23-5.75-.41-8.62-.71a.1.1,0,0,0,0,.19c2.9.33,5.79.8,8.68,1.21l4.27.57a16.83,16.83,0,0,0,3.29.34l3.39,5.5a4.83,4.83,0,0,0-.76,0h-4.11c-1.85,0-3.7,0-5.55,0-.12,0-.1.19,0,.19,1.88,0,3.74.12,5.62.22.89,0,1.77.1,2.66.16l1.33.09a2.71,2.71,0,0,0,1.17,0c1,1.56,1.93,3.11,2.88,4.68s1.78,2.87,2.69,4.29a33.5,33.5,0,0,0,2.89,4.35C436.31,262.42,436.46,262.36,436.42,262.24Z" style="fill:#263238"></path><path d="M428.29,231.46a26.78,26.78,0,0,1-.76,3.62c-.31,1.23-.67,2.45-1.07,3.66a.12.12,0,1,0,.22.07q.57-1.8,1-3.63c.29-1.22.48-2.47.78-3.69C428.51,231.37,428.31,231.33,428.29,231.46Z" style="fill:#263238"></path><path d="M415.76,238.89a1.43,1.43,0,0,0-.93-.34l-1.61-.22c-1-.14-2-.25-3-.37-2.08-.24-4.16-.44-6.24-.7a.1.1,0,0,0,0,.19c2,.24,3.91.53,5.87.79.95.13,1.91.26,2.87.37l1.39.16a5,5,0,0,1,1.58.27C415.76,239.09,415.83,239,415.76,238.89Z" style="fill:#263238"></path><path d="M428.26,255.64c-1-.08-2-.11-2.95-.14l-1.49-.05-.71,0a4.79,4.79,0,0,1-.93-.05c-.14,0-.15.21,0,.19a4.22,4.22,0,0,1,.87,0l.77,0,1.49.09c1,.06,2,.12,2.95.12C428.37,255.85,428.38,255.65,428.26,255.64Z" style="fill:#263238"></path><path d="M434.27,251.38c.12-.55.22-1.11.32-1.67.21-1.1.41-2.2.61-3.3a.1.1,0,0,0-.19,0l-.72,3.21c-.13.53-.24,1.07-.36,1.6l-.15.75a2.09,2.09,0,0,0-.09.78c0,.09.15.17.21.07A3.92,3.92,0,0,0,434.27,251.38Z" style="fill:#263238"></path><polygon points="376.54 275.62 377.73 289.12 381.76 334.7 417.46 334.7 422.5 289.12 423.99 275.62 376.54 275.62" style="fill:#455a64"></polygon><polygon points="376.54 275.62 377.73 289.12 422.5 289.12 423.99 275.62 376.54 275.62" style="fill:#263238"></polygon><rect x="373" y="271.93" width="54.52" height="10.95" transform="translate(800.53 554.82) rotate(180)" style="fill:#455a64"></rect></g><g id="freepik--Cat--inject-54"><path d="M140.9,280.48c-2.1,2.57-3.94,69.76-1.44,78s18.29,23.48,18.89,25.65a15.39,15.39,0,0,1,0,6.26c-.24,1-5.21,5.11-6.87,7.11-.85,1-2.29,8.68-1,9.28s11.08-.12,14-2.89,10.3-14.23,11-16-1.28-14.34-1.79-16.87S189.94,332.6,190,319.91,145.29,275.12,140.9,280.48Z" style="fill:#E8D5B1"></path><path d="M160.67,397.5a.06.06,0,0,1,.1.08c-1,1.57-1.85,3.2-2.65,4.86a7.67,7.67,0,0,0-1,4.78.08.08,0,0,1-.16,0,8.11,8.11,0,0,1,.08-5A13.71,13.71,0,0,1,160.67,397.5Z" style="fill:#263238"></path><path d="M155.26,397.39a.06.06,0,0,1,.09.07,42,42,0,0,0-2.29,4.81c-.59,1.38-1.71,3.51-.63,4.9.18.24,0,.31-.2.11-1.38-1.2-.9-3.36-.38-4.87A13.47,13.47,0,0,1,155.26,397.39Z" style="fill:#263238"></path><path d="M247.12,277.32c2.1,2.57,3.94,69.76,1.44,78.05S230.27,378.84,229.67,381a15.44,15.44,0,0,0,0,6.27c.24,1,5.7,5.7,6.87,7.11,1.67,2,3.33,7.77,2,8.37s-13.14,0-15-2c-2.77-2.89-10.31-14.22-11-16s1.29-14.35,1.79-16.88-16.27-38.43-16.29-51.12S242.73,272,247.12,277.32Z" style="fill:#E8D5B1"></path><g style="opacity:0.1"><path d="M247.12,277.32c2.1,2.57,3.94,69.76,1.44,78.05S230.27,378.84,229.67,381a15.44,15.44,0,0,0,0,6.27c.24,1,5.7,5.7,6.87,7.11,1.67,2,3.33,7.77,2,8.37s-13.14,0-15-2c-2.77-2.89-10.31-14.22-11-16s1.29-14.35,1.79-16.88-16.27-38.43-16.29-51.12S242.73,272,247.12,277.32Z"></path></g><path d="M227.06,393.82c-.05,0-.13,0-.09.09,1.06,1.51,2.07,3.06,3,4.67a7.68,7.68,0,0,1,1.37,4.69.08.08,0,0,0,.16,0,8.08,8.08,0,0,0-.43-5A13.63,13.63,0,0,0,227.06,393.82Z" style="fill:#263238"></path><path d="M232.46,393.33c-.06,0-.14,0-.1.09a41.61,41.61,0,0,1,2.63,4.63c.68,1.34,1.95,3.38,1,4.85-.17.25,0,.31.2.1,1.3-1.3.67-3.42.05-4.89A13.75,13.75,0,0,0,232.46,393.33Z" style="fill:#263238"></path><path d="M240.71,387.4s32.61,21.33,36.67,22.54,59.56,25.85,63.84,26.27c1.73.17,19.31,1.47,20.39.93s-4.7-8.49-8.77-10.39-15.81-3-17.35-4-35.29-35.16-37.21-38.14-7-30.58-7-30.58Z" style="fill:#E8D5B1"></path><path d="M348.45,429.24c-.06,0-.13,0-.08.09,1.21,1.39,2.38,2.83,3.46,4.33a7.66,7.66,0,0,1,1.85,4.53.09.09,0,0,0,.17,0,8.12,8.12,0,0,0-1-4.95C351.85,431.48,350.11,430.37,348.45,429.24Z" style="fill:#263238"></path><path d="M353.76,428.19c-.05-.05-.12,0-.08.09a41,41,0,0,1,3.1,4.33c.82,1.26,2.3,3.16,1.48,4.72-.14.27,0,.31.21.08,1.15-1.43.3-3.48-.47-4.87A13.55,13.55,0,0,0,353.76,428.19Z" style="fill:#263238"></path><path d="M298,384l-43.34,12.35c-7.49-4.77-13.91-9-13.91-9l50.59-33.35S295.88,379.05,298,384Z" style="opacity:0.1"></path><path d="M261.05,330.21c-8.49-14-12.32-72.34-26.29-84.87-8-7.21-57.19-44.59-74.07-39.91-5.51,1.53-22.35,61.36-19.46,80.16,3.24,21,17.22,55,23.67,63s45.08,3.86,51,7.12S261.05,330.21,261.05,330.21Z" style="fill:#E8D5B1"></path><path d="M162.64,347.35a15.36,15.36,0,0,0-.51-1.88c-.35-1.17-.74-2.32-1.14-3.47-.79-2.27-1.64-4.51-2.51-6.74-1.75-4.47-3.71-8.86-5.72-13.23-1.14-2.5-2.31-5-3.47-7.48,0-.1-.21,0-.17.07,3.52,9,6.66,18.05,10.29,27,.51,1.25,1,2.49,1.56,3.73.24.56.5,1.11.76,1.66.34.73.83,1.34,1.11,2.1,0,.09.19.05.15-.05A9.35,9.35,0,0,1,162.64,347.35Z" style="fill:#263238"></path><path d="M144.19,303.18a33.25,33.25,0,0,1-.18-8.34c.23-2.83.54-5.66.94-8.47q.69-4.75,1.59-9.48c0-.05-.07-.07-.08,0-1.41,5.65-2.47,11.38-3.35,17.14a33.39,33.39,0,0,0-.48,8.41,26.54,26.54,0,0,0,2.07,7.76,61,61,0,0,0,4.27,8c.05.07.18,0,.15-.07C147.25,313.24,145.07,308.38,144.19,303.18Z" style="fill:#263238"></path><path d="M160.52,223.41c-4.82-12.53-22.83-37.66-16.24-67.49,4.88-22,31.08-53.51,30.15-69-.72-12.11-29.65-4.62-30.15-18.68-.58-16.38,33.39-23,45.65-2.65C206,92.3,166.55,141,161.6,166.41c-5.24,26.93,7.72,46.45,7.18,47.72S160.52,223.41,160.52,223.41Z" style="fill:#E8D5B1"></path><path d="M165.61,332s-5.74,31-.27,41.4c4.17,8,14.7,34.57,17.23,48.65.41,2.31,1.41,6.76,2.08,7.85s15.41,5.05,17.08,4.27c1-.46.9-6,.18-7.24-1-1.85-5.31-5.11-5.42-5.73-.19-1-1.29-31.82-.88-34.48S208.79,363,210.7,353,167.55,328.85,165.61,332Z" style="fill:#E8D5B1"></path><path d="M192.41,424.43a.06.06,0,0,0-.1.07c.94,1.59,1.82,3.22,2.61,4.89a7.68,7.68,0,0,1,1,4.79.08.08,0,0,0,.16,0,8.15,8.15,0,0,0,0-5A13.53,13.53,0,0,0,192.41,424.43Z" style="fill:#263238"></path><path d="M197.83,424.37c-.05-.05-.14,0-.1.07a41.39,41.39,0,0,1,2.25,4.83c.58,1.39,1.68,3.52.58,4.91-.18.23,0,.31.2.11,1.4-1.19.93-3.36.43-4.86A13.57,13.57,0,0,0,197.83,424.37Z" style="fill:#263238"></path><path d="M172.31,388.41c-.44-1.19-.82-2.4-1.25-3.6-.86-2.4-1.8-4.77-2.74-7.14s-1.84-4.55-2.75-6.83a28,28,0,0,1-2-7,45.58,45.58,0,0,1-.05-7.39c.12-2.52.28-5.05.48-7.57.39-5,1-10,1.57-15,.69-5.64,1.29-11.29,2.26-16.9a.14.14,0,0,0-.27-.07c-1.22,5-2.31,10-3.28,15a143.14,143.14,0,0,0-1.81,15q-.31,3.84-.51,7.69a69.71,69.71,0,0,0-.14,7.65c.28,5,2.24,9.59,4.22,14.12,1.15,2.62,2.26,5.27,3.49,7.85.62,1.29,1.29,2.55,1.89,3.85s1.34,2.63,1.94,4c0,.08.18,0,.15-.07C173.09,390.83,172.75,389.61,172.31,388.41Z" style="fill:#263238"></path><path d="M164.71,309.24a.21.21,0,0,0-.42,0c-.19,2.78-.41,5.58-.43,8.37,0,1.37,0,2.74.11,4.11,0,.66.11,1.33.15,2a10.41,10.41,0,0,0,.23,2,.08.08,0,0,0,.16,0,21.15,21.15,0,0,0,.41-3.9c.09-1.41.15-2.83.15-4.24C165.07,314.8,164.88,312,164.71,309.24Z" style="fill:#263238"></path><path d="M299,344c3,.1,2.22-49.55-9.45-62.61-1.68-1.87-28.1,32.1-28.47,33.25S292.75,343.77,299,344Z" style="fill:#E8D5B1"></path><path d="M298.05,343.78c2.58.09,1.89-42.28-8.07-53.43-1.43-1.6-24,27.39-24.29,28.38S292.74,343.59,298.05,343.78Z" style="opacity:0.1"></path><path d="M288.9,340.7a36.38,36.38,0,0,1,.58-4,35.77,35.77,0,0,1,1-4,27.84,27.84,0,0,1,3.33-7.34,18.8,18.8,0,0,1,5.57-5.73,19,19,0,0,1,1.74-1,17.87,17.87,0,0,1,1.85-.81,22.89,22.89,0,0,1,3.92-1.14,17.85,17.85,0,0,0-7.8,2.52,15.33,15.33,0,0,0-3.26,2.57,20.86,20.86,0,0,0-2.63,3.23,27.14,27.14,0,0,0-3.26,7.59A30.81,30.81,0,0,0,288.9,340.7Z" style="fill:#263238"></path><path d="M287,339.85a42.75,42.75,0,0,1,0-5.88,47.26,47.26,0,0,1,.65-5.83A41.93,41.93,0,0,1,291.07,317a35.22,35.22,0,0,1,2.9-5.06,36.41,36.41,0,0,1,3.73-4.49,33.11,33.11,0,0,1,4.44-3.82,42.42,42.42,0,0,1,5-3.13,34.13,34.13,0,0,0-9.8,6.55,32.06,32.06,0,0,0-3.88,4.51,36.13,36.13,0,0,0-3,5.13,40.71,40.71,0,0,0-3.36,11.36A41.66,41.66,0,0,0,287,339.85Z" style="fill:#263238"></path><path d="M196.39,352.75c-3,.38-6.83-49.12,3.57-63.22,1.49-2,31,29.34,31.45,30.45S202.57,352,196.39,352.75Z" style="fill:#E8D5B1"></path><path d="M197.29,352.45c-2.56.33-5.83-41.91,3-53.94,1.28-1.73,26.44,25,26.84,26S202.56,351.77,197.29,352.45Z" style="opacity:0.1"></path><path d="M231.54,319.67c-2-3-11.89-13.65-14.51-16.21s-5.55-5.14-8.39-7.64q-2.23-2-4.49-3.93L201.88,290a9.07,9.07,0,0,0-2-1.56c-1.8-.8-5.46,8.6-7.31,19.29a99.42,99.42,0,0,0-1.06,21.67,91.29,91.29,0,0,0,1.32,12.12,83.85,83.85,0,0,0,2.85,11.7.08.08,0,0,0,.15,0c-.7-3.45-1.38-6.9-1.79-10.38s-.7-6.89-.86-10.34a120.06,120.06,0,0,1,.72-20.77c1.74-13.31,5.81-21.73,5.94-21.62l2.18,2q2.08,1.95,4.21,3.87c2.73,2.46,5.45,4.94,8.23,7.34,2.95,2.53,14.24,13.55,16.8,16.6C231.38,320.05,231.67,319.87,231.54,319.67Z" style="fill:#263238"></path><path d="M206.11,348.54a36,36,0,0,0-1-4,34.9,34.9,0,0,0-1.34-3.84,28.11,28.11,0,0,0-4-7,19.06,19.06,0,0,0-6.08-5.18,17,17,0,0,0-1.83-.87c-.63-.22-1.26-.48-1.92-.64a23.34,23.34,0,0,0-4-.76,17.86,17.86,0,0,1,8,1.77,16,16,0,0,1,3.49,2.27,19.94,19.94,0,0,1,2.91,3,26.77,26.77,0,0,1,4,7.25A30.42,30.42,0,0,1,206.11,348.54Z" style="fill:#263238"></path><path d="M207.93,347.51a42.65,42.65,0,0,0-.51-5.86,46.39,46.39,0,0,0-1.19-5.74,41.75,41.75,0,0,0-4.49-10.77,35.94,35.94,0,0,0-3.36-4.77,37.36,37.36,0,0,0-4.13-4.12,33.33,33.33,0,0,0-4.78-3.39,43.6,43.6,0,0,0-5.24-2.65,34.13,34.13,0,0,1,10.37,5.61,32.68,32.68,0,0,1,4.28,4.12,35.84,35.84,0,0,1,3.48,4.83,40.17,40.17,0,0,1,4.41,11A41.54,41.54,0,0,1,207.93,347.51Z" style="fill:#263238"></path><path d="M279.66,388.24c.92-.29,19.9-13.46,26.32-32.74,1.09-3.28-23.79-37.59-35.86-43.87-6.09-3.17-42.21,2-44.38,2.69-8.48,2.71-33.36,38.16-32.2,49,.42,4,12.31,19.52,33.05,28.16C231.65,393.63,257.7,395.19,279.66,388.24Z" style="fill:#E8D5B1"></path><path d="M200.62,344.61a41,41,0,0,0-6.56,10.21,28.11,28.11,0,0,0-1.76,5.82,34.85,34.85,0,0,0-.63,6,.08.08,0,0,0,.15,0c.47-1.95,1-3.87,1.59-5.78s1.31-3.71,2-5.55a50,50,0,0,1,5.37-10.62C200.86,344.64,200.7,344.52,200.62,344.61Z" style="fill:#263238"></path><path d="M201.63,374.85a39,39,0,0,1-4.94-6.16,14,14,0,0,1-1.84-8.62c0-.1-.14-.14-.15,0a26.83,26.83,0,0,0-.54,4.8,10,10,0,0,0,1.19,4.34c1.41,2.55,3.77,4.27,6.14,5.87C201.61,375.12,201.71,374.94,201.63,374.85Z" style="fill:#263238"></path><path d="M277.61,316.8c-1.57-1.48-3.09-3-4.79-4.35a10.39,10.39,0,0,0-2.48-1.57c-.92-.37-11.32-1.75-43.21,2.28a10,10,0,0,0-5.64,3.23c-1.75,1.73-3.32,3.64-5,5.47-.08.08,0,.18.11.11,1.57-1.41,3.14-2.83,4.73-4.22s3.29-2.83,5.27-3.1c16.43-2.29,39.05-3.92,45-1.86a11.52,11.52,0,0,1,2.79,2c1,.75,2,1.45,3,2.22C277.55,317.12,277.74,316.93,277.61,316.8Z" style="fill:#263238"></path><path d="M304.68,349.14a43.89,43.89,0,0,0-6.95-9.2c-1.55-1.63-3.19-3.16-4.72-4.81-.07-.07-.17,0-.11.12,1.68,1.9,3.21,3.93,4.71,6s2.82,3.85,4.12,5.86S304,351,305.07,353a25.3,25.3,0,0,1,2.57,6.55c0,.1.19.08.18,0A27.8,27.8,0,0,0,304.68,349.14Z" style="fill:#263238"></path><path d="M304.82,358.6c-7.28,17.58-24.29,29.38-25.16,29.64-22,7-48,5.4-53.07,3.28A77.78,77.78,0,0,1,201.73,375l-.1-.13s8.51-2.85,13.16-1.92,11.31,7.48,21.17,7.26,10.32-6.28,12.56-10.21c1-1.84,3.88-5.31,10.68-3.53,0,0,1.5-16.51,3.22-17.18,2.16-.83,5.26,16,5.69,16.4s2.24-1.92,4.66,0,4.55,8.68,11.54,8.68c8.46,0,9.2-11.69,14.29-14.26A15,15,0,0,1,304.82,358.6Z" style="fill:#fff"></path><path d="M282,346.28c6.53-.7,10.51,5.47,11.32,13.09.66,6.18-2.55,12.89-8.82,13.56s-10.94-6.33-11.55-12.12S274.85,347,282,346.28Z" style="fill:#263238"></path><path d="M281.49,347.94c6.14-.65,9.88,5.15,10.64,12.31.62,5.8-2.39,12.12-8.29,12.74S273.56,367.05,273,361.6,274.82,348.65,281.49,347.94Z" style="fill:#fff"></path><path d="M283.06,353c4.81-.51,7.73,4,8.33,9.64.48,4.54-1.88,9.48-6.49,10s-8-4.65-8.5-8.92S277.84,353.59,283.06,353Z" style="fill:#263238"></path><path d="M279.5,351c2.18-.23,3.51,1.83,3.78,4.38.22,2.06-.85,4.3-2.95,4.53s-3.65-2.12-3.86-4.05S277.13,351.25,279.5,351Z" style="fill:#fff"></path><path d="M235.66,352.39c-8.47-1.13-13.59,4.81-14.6,12.41A12.83,12.83,0,0,0,232.57,379c8.14,1.08,14.14-5.64,14.91-11.42A13.49,13.49,0,0,0,235.66,352.39Z" style="fill:#263238"></path><path d="M236.27,354.09c-8-1.06-12.78,4.52-13.73,11.67a12.05,12.05,0,0,0,10.82,13.32c7.65,1,13.3-5.3,14-10.73A12.66,12.66,0,0,0,236.27,354.09Z" style="fill:#fff"></path><path d="M237.47,359.11c-6.24-.83-10,3.54-10.75,9.13a9.45,9.45,0,0,0,8.48,10.44c6,.79,10.4-4.16,11-8.41A9.9,9.9,0,0,0,237.47,359.11Z" style="fill:#263238"></path><path d="M232,356.94c-2.83-.38-4.54,1.61-4.87,4.14a4.28,4.28,0,0,0,3.84,4.74,4.56,4.56,0,0,0,5-3.81A4.5,4.5,0,0,0,232,356.94Z" style="fill:#fff"></path><path d="M258.84,366.24c.13.7,4.53,3.11,5,3.09s4.7-2.89,4.78-3.6-3.92-.77-4.94-.71S258.72,365.54,258.84,366.24Z" style="fill:#263238"></path><path d="M272.08,370.62c-.65,1-1.31,2.07-2,3a8.07,8.07,0,0,1-1.19,1.27,1.28,1.28,0,0,1-.59.28,1.24,1.24,0,0,1-.56-.24,4.4,4.4,0,0,1-1-1.23,13.37,13.37,0,0,1-.81-1.55,28.53,28.53,0,0,1-1.22-3.35l-.61-2.09-.61,2.09a25.58,25.58,0,0,1-1.56,4.06,11,11,0,0,1-1.1,1.82,3.27,3.27,0,0,1-1.46,1.21l-.2,0-.21,0a2.59,2.59,0,0,1-.47-.05,3.87,3.87,0,0,1-1-.34,8.54,8.54,0,0,1-1.75-1.23,21.69,21.69,0,0,1-2.94-3.32,16.69,16.69,0,0,0,2.53,3.73,8.38,8.38,0,0,0,1.78,1.51,3.34,3.34,0,0,0,2.46.55,4.09,4.09,0,0,0,2.06-1.44,11.69,11.69,0,0,0,1.3-2,24.23,24.23,0,0,0,1.73-4.26h-1.22a24,24,0,0,0,1.37,3.5,13.7,13.7,0,0,0,1,1.65,4.94,4.94,0,0,0,1.44,1.44,2,2,0,0,0,1.15.3,1.86,1.86,0,0,0,1-.56,6.94,6.94,0,0,0,1.16-1.53A20.74,20.74,0,0,0,272.08,370.62Z" style="fill:#263238"></path><path d="M295.86,364.67c3.58-.36,7.16-.61,10.74-.77s7.18-.28,10.76-.23c1.8,0,3.59,0,5.38.05s3.59.13,5.38.23c3.59.15,7.16.5,10.75.81-1.78-.29-3.55-.59-5.34-.81s-3.58-.42-5.37-.56c-3.59-.31-7.19-.41-10.8-.45s-7.2.13-10.79.4c-1.79.14-3.59.32-5.38.52S297.62,364.33,295.86,364.67Z" style="fill:#263238"></path><path d="M297.37,366.72c1.62,0,3.24.07,4.86.14s3.24.12,4.85.21c3.23.16,6.46.35,9.68.65,1.62.11,3.23.28,4.84.43l4.82.55,2.41.29,2.4.34c1.61.19,3.2.5,4.81.71-3.15-.76-6.33-1.42-9.55-1.9s-6.43-.85-9.67-1.14-6.47-.44-9.72-.49S300.61,366.49,297.37,366.72Z" style="fill:#263238"></path><path d="M296.5,368.78c1.34.19,2.68.38,4,.6s2.66.41,4,.64c2.66.47,5.32.92,8,1.44s5.29,1.05,7.93,1.62,5.26,1.17,7.91,1.75q-1.94-.65-3.87-1.23c-1.3-.36-2.6-.73-3.92-1.06-2.61-.7-5.26-1.26-7.91-1.79s-5.33-.94-8-1.28S299.21,368.86,296.5,368.78Z" style="fill:#263238"></path><path d="M215.9,376.32c-2.22-.16-4.46-.19-6.69-.22s-4.46,0-6.7.13c-4.46.17-8.91.54-13.35,1s-8.87,1.16-13.25,2c-2.19.41-4.37.9-6.55,1.4-1.09.25-2.16.54-3.24.83l-3.23.87c4.37-.91,8.72-1.85,13.12-2.55,2.2-.38,4.4-.71,6.6-1s4.41-.6,6.63-.82c4.42-.55,8.86-.9,13.3-1.19S211.44,376.33,215.9,376.32Z" style="fill:#263238"></path><path d="M214.32,379.06c-4,.2-8,.63-12,1.16s-8,1.22-11.92,2-7.88,1.68-11.76,2.73-7.74,2.25-11.52,3.6c1.95-.5,3.86-1.12,5.81-1.59l2.92-.77,2.92-.7c2-.48,3.92-.91,5.87-1.36s3.93-.84,5.9-1.2c3.93-.81,7.89-1.5,11.86-2.13,2-.33,4-.63,6-.91S212.33,379.31,214.32,379.06Z" style="fill:#263238"></path><path d="M215.68,381.47c-3.32.51-6.59,1.24-9.85,2s-6.49,1.74-9.7,2.71-6.38,2.08-9.51,3.28c-1.58.58-3.13,1.21-4.69,1.84s-3.08,1.31-4.61,2c3.16-1.1,6.31-2.26,9.48-3.32s6.35-2.13,9.55-3.11,6.4-1.94,9.62-2.86c1.61-.47,3.22-.9,4.84-1.33S214.05,381.87,215.68,381.47Z" style="fill:#263238"></path></g><g id="freepik--Ball--inject-54"><path d="M286.62,411.67a3,3,0,0,1,1.52-2.9,2.68,2.68,0,0,1-1.21-2.93c.56-1.82,2.8-1.63,2.8-1.63a2.41,2.41,0,0,1-.5-3.08c.78-1.6,3.18-.75,3.18-.75a2.94,2.94,0,0,1-.3-3.65c.52-.88,2.17-.77,2.28-.92,3.76-4.88,11.64-14.78,31.12-10,14.8,3.65,19.44,17.94,18.82,30.38,0,.19,1,.28,1,1.63a1.69,1.69,0,0,1-.86,1.63,1.79,1.79,0,0,1,.4,2.23,1.92,1.92,0,0,1-2.14,1.05c.26.5,1.52,1.29.82,3.1a2.41,2.41,0,0,1-2.63,1.46A2.37,2.37,0,0,1,341,430c-.23.4-1.89.5-2.17.68,16,8.25,40.9,8,45.95,10,16.53,6.53-2.92,22.48-17.19,17.51-.9-.31.57-2,1.52-1.93,16.08,1.47,23.58-10.21,13.93-12.92-6.26-1.75-30.79-1.45-45.49-9.81-1.2-.68-2,1-2.29,1.33-7.6,7.64-23.56,9.87-33.67,4.23-12.9-7.19-14.06-18.71-13.74-25A2.58,2.58,0,0,1,286.62,411.67Z" style="fill:#455a64"></path><path d="M294.84,404.57c3.73,7.28,11.63,11.82,19.1,14.48a49.63,49.63,0,0,0,24.79,2.16c.62-.11.89.85.26,1a50.55,50.55,0,0,1-26.1-2.44c-7.43-2.79-15.17-7.36-18.91-14.65C293.69,404.5,294.55,404,294.84,404.57Z" style="fill:#263238"></path><path d="M292.29,413.19a51.19,51.19,0,0,0,43.2,16.69c.64-.07.63.92,0,1a52.13,52.13,0,0,1-43.9-17C291.16,413.42,291.86,412.72,292.29,413.19Z" style="fill:#263238"></path><path d="M293.55,396.34l.31,1.67c.12.63,1.07.36,1-.26-.06-.29-.11-.58-.16-.86a.75.75,0,0,0,.13-.16c4.26-7.83,13-10.42,21.37-10.63a6.42,6.42,0,0,0-1.11,1.28.45.45,0,0,0-.24-.07A19.2,19.2,0,0,0,296,399.09c0-.07-.09-.12-.13-.18-.37-.52-1.23,0-.86.5,10.7,14.83,29,23,47,17.81a.5.5,0,0,0-.26-1,38.93,38.93,0,0,1-7.58,1.39,28.47,28.47,0,0,0,9.25-11.2c.27-.58-.59-1.08-.85-.5a27.6,27.6,0,0,1-9.66,11.39.5.5,0,0,0-.22.4c-.92,0-1.82,0-2.73,0,.76-.61,1.5-1.24,2.22-1.88a.49.49,0,0,0,.24-.21,46.77,46.77,0,0,0,8.73-10.57.1.1,0,0,0,0-.05c.22-.37.45-.74.66-1.12a.5.5,0,0,0-.86-.5l-.09.17c-2.75-8.89-8-16.53-17.81-18.19a.48.48,0,0,0-.45.15l0,0a.28.28,0,0,0-.12,0,.41.41,0,0,0-.57-.34,7.32,7.32,0,0,0-4.78,6.61s0,.08,0,.12a17.37,17.37,0,0,0-2.15.3.22.22,0,0,0,0-.08,5.75,5.75,0,0,1,3.9-6.47c.6-.2.34-1.16-.26-.95a7.11,7.11,0,0,0-1.42.66.43.43,0,0,0-.42-.25c-8.72.1-17.93,2.71-22.55,10.65A.52.52,0,0,0,293.55,396.34Zm44.79,11.21c0-8.61-6.55-16.28-13.66-20.78,8.61,2.28,13.08,9.61,15.5,18C339.59,405.7,339,406.64,338.34,407.55Zm-3,3.81a30.46,30.46,0,0,0-10.79-23.52c7.08,4.6,13.47,12.39,12.79,21.09C336.66,409.76,336,410.57,335.3,411.36ZM321,386.7l.23-.13a29.55,29.55,0,0,1,13.09,25.59.41.41,0,0,0,.06.23c-.6.63-1.2,1.25-1.84,1.85A34.76,34.76,0,0,0,321,386.7Zm4.37,30.68a43.06,43.06,0,0,0-6.88-26.14.49.49,0,0,0-.3-.22,6.09,6.09,0,0,1,.51-1.67,37.2,37.2,0,0,1,8.53,25,.5.5,0,0,0,1,0,38.25,38.25,0,0,0-8.9-25.85l-.12-.09a6.39,6.39,0,0,1,1-1.14,33.78,33.78,0,0,1,11.29,27.86c-.82.73-1.66,1.45-2.54,2.12a.51.51,0,0,0-.2.41l-.57,0c0-.49,0-1,0-1.48s-1-.63-1,0c0,.47,0,.94-.05,1.4C326.56,417.53,326,417.47,325.35,417.38Zm-1.52-9.59h0c.08.5.15,1,.22,1.51a25.19,25.19,0,0,1-8.29-4.3.4.4,0,0,0-.31-.25,25.45,25.45,0,0,1-6.9-8.72,15,15,0,0,1,1.81-1.16A28.73,28.73,0,0,0,323.83,407.79Zm-12.56-13.37a16.18,16.18,0,0,1,3.26-1.15,7.51,7.51,0,0,0-1.51,4.06A24.93,24.93,0,0,1,311.27,394.42Zm-4.29,3c.26-.26.53-.52.82-.77.22.47.47.93.72,1.37a.42.42,0,0,0-.15.17,6.86,6.86,0,0,0,.74,7.95,7,7,0,0,1-1.49,1.16,10,10,0,0,1-.68-9.61A.54.54,0,0,0,307,397.43Zm2.11,1.54a26.87,26.87,0,0,0,2.12,2.95.44.44,0,0,0-.14.25,7.53,7.53,0,0,1-1.31,3.21A5.8,5.8,0,0,1,309.09,399Zm13.85,4.69c.26,1,.5,1.95.7,2.93a28.23,28.23,0,0,1-2.78-1.6.34.34,0,0,0,.09-.14A1.92,1.92,0,0,1,322.94,403.66Zm-2.88.8a26.54,26.54,0,0,1-2.81-2.24l0-.06a5,5,0,0,1,3.92-3.57,43.11,43.11,0,0,1,1.46,4.08A2.9,2.9,0,0,0,320.06,404.46Zm-4.55-4a5.63,5.63,0,0,1,4.41-4.59l0,0c.29.59.58,1.18.85,1.79a5.93,5.93,0,0,0-4.35,3.82C316.13,401.15,315.82,400.82,315.51,400.48Zm5,15.87a7.41,7.41,0,0,0,3.9-3.15q.08,2,0,4A38.7,38.7,0,0,1,320.5,416.35Zm-4.7-1.59a7.38,7.38,0,0,0,3.66-6.25,26.49,26.49,0,0,0,4.45,1.78.44.44,0,0,0,.28,0c.05.43.08.86.12,1.29a.39.39,0,0,0-.31.25,6.49,6.49,0,0,1-4.48,3.8.42.42,0,0,0-.34.35C318,415.62,316.91,415.21,315.8,414.76ZM310.19,412a7.55,7.55,0,0,0,5.48-5.86,25.68,25.68,0,0,0,2.79,1.82,6.44,6.44,0,0,1-3.64,6.2.45.45,0,0,0-.15.11A42.78,42.78,0,0,1,310.19,412Zm-2.47-1.56c3.07-.53,4.7-3.29,5.91-6,.38.34.76.67,1.16,1a6.61,6.61,0,0,1-5.45,5.72.42.42,0,0,0-.26.15C308.62,411.06,308.17,410.75,307.72,410.45Zm-1.9-1.35a8.12,8.12,0,0,0,6.14-6.33c.3.33.6.66.92,1-1.12,2.54-2.6,5.53-5.71,5.79a.48.48,0,0,0-.39.27C306.45,409.57,306.14,409.33,305.82,409.1Zm-2.27-6.69a20.3,20.3,0,0,1,1.8-3.06,10.93,10.93,0,0,0,1.38,8.41,7.41,7.41,0,0,1-1.66.48,7,7,0,0,1-1.41-5.43A.46.46,0,0,0,303.55,402.41Zm-1.5,3.55c.19-.49.38-1,.58-1.46a7.49,7.49,0,0,0,.59,2.5C302.82,406.66,302.43,406.32,302.05,406Zm-2.87-2.91a.42.42,0,0,0,.17-.25A18.36,18.36,0,0,1,314,389.86a7.28,7.28,0,0,0,0,2.51v0a17.2,17.2,0,0,0-6.16,3c-3.36,2.55-5.11,6.06-6.59,9.88C300.55,404.53,299.86,403.79,299.18,403.05Zm15.36-14.76c-.08.18-.16.36-.23.54h-.1a19.29,19.29,0,0,0-15.72,13.45c-.64-.75-1.26-1.52-1.86-2.3a.26.26,0,0,0,.05-.09A18.22,18.22,0,0,1,314.54,388.29Zm1.57,4.68a17.16,17.16,0,0,1,2.16-.17c.43.71.84,1.44,1.23,2.17a6.58,6.58,0,0,0-4.79,4.6c-.24-.28-.46-.56-.68-.85h0A6.67,6.67,0,0,1,316.11,393Z" style="fill:#263238"></path><path d="M290.49,428.1c.05.63,1,.63,1,0a16.1,16.1,0,0,1,1.66-8.66c.33.36.67.72,1,1.06a14.19,14.19,0,0,0-1.41,11.19.49.49,0,0,0,.95-.26,13.18,13.18,0,0,1,1.19-10.21c.58.56,1.17,1.11,1.78,1.63a12.14,12.14,0,0,0,.43,13.59c.37.52,1.22,0,.86-.5a11.16,11.16,0,0,1-.53-12.43c.56.47,1.12.91,1.7,1.35a.45.45,0,0,0-.36.32,13.87,13.87,0,0,0,1.67,12.17.52.52,0,0,0,.94-.27,20.81,20.81,0,0,0,11.76-5c.86.26,1.72.51,2.6.72A16.66,16.66,0,0,1,303.37,438a.5.5,0,0,0,0,1,17.69,17.69,0,0,0,13.25-5.66.49.49,0,0,0,.12-.28c.59.13,1.18.24,1.78.35a17.37,17.37,0,0,1-6.86,7.89.49.49,0,0,0,.5.85,18.17,18.17,0,0,0,7.25-8.32.5.5,0,0,0,0-.27c.64.1,1.29.18,1.94.26a18.82,18.82,0,0,1-4.43,7.77c-.44.46.26,1.16.7.7a19.86,19.86,0,0,0,4.73-8.36l.92.07a12.73,12.73,0,0,1-3.92,7.22c-.47.44.23,1.14.7.7a13.51,13.51,0,0,0,4.21-7.86l1.68.06a14.65,14.65,0,0,1-3.43,6.71c-.43.47.27,1.17.7.7a15.89,15.89,0,0,0,3.75-7.42q1.31,0,2.61-.09a7.75,7.75,0,0,1-2.62,5.25c-.47.43.23,1.12.7.7a8.82,8.82,0,0,0,2.92-6l1.06-.1c.63-.07.64-1.06,0-1a44.66,44.66,0,0,1-38.44-14.72c-.39-.44-1,.12-.76.58a.38.38,0,0,0-.1.12A17,17,0,0,0,290.49,428.1Zm16.39,6.64a9.62,9.62,0,0,1-.83-5.57,45.29,45.29,0,0,0,6,2.51,19.74,19.74,0,0,1-5.15,3.07Zm-3.15,1a15,15,0,0,1-.82-8.3c.73.45,1.48.88,2.23,1.29l0,.08a10.82,10.82,0,0,0,.85,6.3A21,21,0,0,1,303.73,435.72Zm-4-10.28a.59.59,0,0,0,0-.13c.76.55,1.53,1.09,2.33,1.59a.51.51,0,0,0-.11.22,16,16,0,0,0,.78,8.79c-.47.08-.94.14-1.42.19a.51.51,0,0,0-.37.21A12.93,12.93,0,0,1,299.72,425.44Z" style="fill:#263238"></path><path d="M313.53,424.2c8.46,3.95,17.85,3.21,26.89,2.4.64-.06.63.93,0,1-9.25.83-18.74,1.5-27.39-2.54C312.45,424.79,313,423.93,313.53,424.2Z" style="fill:#263238"></path><path d="M340.62,419l3.75-.42c.64-.07.63.92,0,1l-3.75.42C340,420.1,340,419.11,340.62,419Z" style="fill:#263238"></path><path d="M289.83,404.2a32.38,32.38,0,0,0,17.62,17c.59.23.33,1.19-.26.95A33.3,33.3,0,0,1,289,404.7C288.72,404.13,289.57,403.62,289.83,404.2Z" style="fill:#263238"></path><path d="M293,399.61a59.35,59.35,0,0,0,22.42,17.85c.58.27.08,1.12-.5.86a60.34,60.34,0,0,1-22.77-18.21C291.72,399.6,292.58,399.11,293,399.61Z" style="fill:#263238"></path><path d="M317.05,418.08a.5.5,0,0,1,0,1A.5.5,0,0,1,317.05,418.08Z" style="fill:#263238"></path><path d="M316.1,422a47.77,47.77,0,0,0,26.39,1c.62-.15.89.8.27.95a48.72,48.72,0,0,1-26.92-1C315.24,422.74,315.5,421.78,316.1,422Z" style="fill:#263238"></path><path d="M311.11,423.23a.5.5,0,0,1,0,1A.5.5,0,0,1,311.11,423.23Z" style="fill:#263238"></path><path d="M288.68,414.68a7.58,7.58,0,0,1-.45-1c-.22-.6.73-.86.95-.26a7,7,0,0,0,2.61,3.39c.52.36,0,1.22-.5.86l-.31-.24a12.35,12.35,0,0,0-1,6.46c.07.63-.92.63-1,0a13.28,13.28,0,0,1,1.26-7.13,7.74,7.74,0,0,1-.88-1,9.7,9.7,0,0,0-.5,2.45c-.05.64-1,.64-1,0A11,11,0,0,1,288.68,414.68Z" style="fill:#263238"></path><path d="M333.46,432.59l2.55-.38a.53.53,0,0,1,.44.15,3.33,3.33,0,0,1,2.08-2c.6-.2.86.76.26,1a2.28,2.28,0,0,0-1.54,1.92c-.06.63-1.05.63-1,0a.06.06,0,0,1,0,0l-2.54.37C333.1,433.63,332.83,432.68,333.46,432.59Z" style="fill:#263238"></path></g></svg>